<mxfile host="app.diagrams.net" agent="Mozilla/5.0 (Windows NT 10.0; Win64; x64) AppleWebKit/537.36 (KHTML, like Gecko) Chrome/140.0.0.0 Safari/537.36" version="28.2.3" pages="3">
  <diagram name="Nivel 0" id="NIEbe64Oj9opVdbWHVGA">
    <mxGraphModel grid="0" page="0" gridSize="10" guides="1" tooltips="1" connect="1" arrows="1" fold="1" pageScale="1" pageWidth="2827" pageHeight="2169" math="0" shadow="0">
      <root>
        <mxCell id="0" />
        <mxCell id="1" parent="0" />
        <mxCell id="X3uDGR-iY_vWVwm-lydp-6" style="edgeStyle=orthogonalEdgeStyle;rounded=0;orthogonalLoop=1;jettySize=auto;html=1;" edge="1" parent="1" source="X3uDGR-iY_vWVwm-lydp-1" target="X3uDGR-iY_vWVwm-lydp-4">
          <mxGeometry relative="1" as="geometry" />
        </mxCell>
        <mxCell id="X3uDGR-iY_vWVwm-lydp-1" value="Programa" style="ellipse;whiteSpace=wrap;html=1;aspect=fixed;" vertex="1" parent="1">
          <mxGeometry x="849" y="-769" width="170" height="170" as="geometry" />
        </mxCell>
        <mxCell id="X3uDGR-iY_vWVwm-lydp-5" style="edgeStyle=orthogonalEdgeStyle;rounded=0;orthogonalLoop=1;jettySize=auto;html=1;entryX=0;entryY=0.5;entryDx=0;entryDy=0;" edge="1" parent="1" source="X3uDGR-iY_vWVwm-lydp-3" target="X3uDGR-iY_vWVwm-lydp-1">
          <mxGeometry relative="1" as="geometry" />
        </mxCell>
        <mxCell id="X3uDGR-iY_vWVwm-lydp-3" value="Usuario" style="rounded=0;whiteSpace=wrap;html=1;" vertex="1" parent="1">
          <mxGeometry x="643" y="-714" width="120" height="60" as="geometry" />
        </mxCell>
        <mxCell id="X3uDGR-iY_vWVwm-lydp-4" value="Administrador" style="rounded=0;whiteSpace=wrap;html=1;" vertex="1" parent="1">
          <mxGeometry x="1110" y="-714" width="120" height="60" as="geometry" />
        </mxCell>
      </root>
    </mxGraphModel>
  </diagram>
  <diagram id="VRhxAWkKdDLD0TwXUTyH" name="Nivel 1">
    <mxGraphModel grid="1" page="1" gridSize="10" guides="1" tooltips="1" connect="1" arrows="1" fold="1" pageScale="1" pageWidth="827" pageHeight="1169" math="0" shadow="0">
      <root>
        <mxCell id="0" />
        <mxCell id="1" parent="0" />
        <mxCell id="1Vhxwp0FINDWqhao2by5-1" style="edgeStyle=orthogonalEdgeStyle;rounded=0;orthogonalLoop=1;jettySize=auto;html=1;exitX=1;exitY=0.5;exitDx=0;exitDy=0;" edge="1" parent="1" source="1Vhxwp0FINDWqhao2by5-7" target="1Vhxwp0FINDWqhao2by5-4">
          <mxGeometry relative="1" as="geometry">
            <mxPoint x="476" y="450" as="sourcePoint" />
          </mxGeometry>
        </mxCell>
        <mxCell id="1Vhxwp0FINDWqhao2by5-2" style="edgeStyle=orthogonalEdgeStyle;rounded=0;orthogonalLoop=1;jettySize=auto;html=1;entryX=0;entryY=0.5;entryDx=0;entryDy=0;" edge="1" parent="1" source="1Vhxwp0FINDWqhao2by5-3" target="1Vhxwp0FINDWqhao2by5-5">
          <mxGeometry relative="1" as="geometry">
            <mxPoint x="306" y="450" as="targetPoint" />
          </mxGeometry>
        </mxCell>
        <mxCell id="1Vhxwp0FINDWqhao2by5-3" value="Usuario" style="rounded=0;whiteSpace=wrap;html=1;" vertex="1" parent="1">
          <mxGeometry x="100" y="420" width="120" height="60" as="geometry" />
        </mxCell>
        <mxCell id="1Vhxwp0FINDWqhao2by5-4" value="Administrador" style="rounded=0;whiteSpace=wrap;html=1;" vertex="1" parent="1">
          <mxGeometry x="567" y="420" width="120" height="60" as="geometry" />
        </mxCell>
        <mxCell id="1Vhxwp0FINDWqhao2by5-8" style="edgeStyle=orthogonalEdgeStyle;rounded=0;orthogonalLoop=1;jettySize=auto;html=1;entryX=0.5;entryY=0;entryDx=0;entryDy=0;" edge="1" parent="1" source="1Vhxwp0FINDWqhao2by5-5" target="1Vhxwp0FINDWqhao2by5-7">
          <mxGeometry relative="1" as="geometry" />
        </mxCell>
        <mxCell id="1Vhxwp0FINDWqhao2by5-5" value="Proyecto" style="ellipse;whiteSpace=wrap;html=1;aspect=fixed;" vertex="1" parent="1">
          <mxGeometry x="334" y="290" width="80" height="80" as="geometry" />
        </mxCell>
        <mxCell id="1Vhxwp0FINDWqhao2by5-7" value="Chat" style="ellipse;whiteSpace=wrap;html=1;aspect=fixed;" vertex="1" parent="1">
          <mxGeometry x="334" y="480" width="80" height="80" as="geometry" />
        </mxCell>
      </root>
    </mxGraphModel>
  </diagram>
  <diagram id="S5A99e8NYCysDQTNT127" name="Nivel 2">
    <mxGraphModel grid="1" page="1" gridSize="10" guides="1" tooltips="1" connect="1" arrows="1" fold="1" pageScale="1" pageWidth="827" pageHeight="1169" math="0" shadow="0">
      <root>
        <mxCell id="0" />
        <mxCell id="1" parent="0" />
        <mxCell id="Gg3FP1nmdxX-HRQesoE5-12" style="edgeStyle=orthogonalEdgeStyle;rounded=0;orthogonalLoop=1;jettySize=auto;html=1;entryX=0;entryY=0.5;entryDx=0;entryDy=0;" edge="1" parent="1" source="4676IxzUqboOQJkkWCql-3" target="4676IxzUqboOQJkkWCql-6">
          <mxGeometry relative="1" as="geometry" />
        </mxCell>
        <mxCell id="4676IxzUqboOQJkkWCql-3" value="Usuario" style="rounded=0;whiteSpace=wrap;html=1;" vertex="1" parent="1">
          <mxGeometry x="70" y="430" width="120" height="60" as="geometry" />
        </mxCell>
        <mxCell id="4676IxzUqboOQJkkWCql-4" value="Administrador" style="rounded=0;whiteSpace=wrap;html=1;" vertex="1" parent="1">
          <mxGeometry x="587" y="430" width="120" height="60" as="geometry" />
        </mxCell>
        <mxCell id="C18QY-BRbdgbQT3fnW8t-1" style="edgeStyle=orthogonalEdgeStyle;rounded=0;orthogonalLoop=1;jettySize=auto;html=1;entryX=0;entryY=0.5;entryDx=0;entryDy=0;" edge="1" parent="1" source="4676IxzUqboOQJkkWCql-6" target="Gg3FP1nmdxX-HRQesoE5-3">
          <mxGeometry relative="1" as="geometry" />
        </mxCell>
        <mxCell id="4676IxzUqboOQJkkWCql-6" value="Pagina" style="ellipse;whiteSpace=wrap;html=1;aspect=fixed;" vertex="1" parent="1">
          <mxGeometry x="260" y="300" width="80" height="80" as="geometry" />
        </mxCell>
        <mxCell id="C18QY-BRbdgbQT3fnW8t-3" style="edgeStyle=orthogonalEdgeStyle;rounded=0;orthogonalLoop=1;jettySize=auto;html=1;entryX=0;entryY=0.5;entryDx=0;entryDy=0;" edge="1" parent="1" source="4676IxzUqboOQJkkWCql-7" target="4676IxzUqboOQJkkWCql-8">
          <mxGeometry relative="1" as="geometry" />
        </mxCell>
        <mxCell id="4676IxzUqboOQJkkWCql-7" value="Chat" style="ellipse;whiteSpace=wrap;html=1;aspect=fixed;" vertex="1" parent="1">
          <mxGeometry x="260" y="560" width="80" height="80" as="geometry" />
        </mxCell>
        <mxCell id="Gg3FP1nmdxX-HRQesoE5-2" style="edgeStyle=orthogonalEdgeStyle;rounded=0;orthogonalLoop=1;jettySize=auto;html=1;entryX=0;entryY=0.5;entryDx=0;entryDy=0;" edge="1" parent="1" source="4676IxzUqboOQJkkWCql-8" target="4676IxzUqboOQJkkWCql-4">
          <mxGeometry relative="1" as="geometry" />
        </mxCell>
        <mxCell id="4676IxzUqboOQJkkWCql-8" value="Mensajes" style="ellipse;whiteSpace=wrap;html=1;aspect=fixed;" vertex="1" parent="1">
          <mxGeometry x="430" y="560" width="80" height="80" as="geometry" />
        </mxCell>
        <mxCell id="Gg3FP1nmdxX-HRQesoE5-13" style="edgeStyle=orthogonalEdgeStyle;rounded=0;orthogonalLoop=1;jettySize=auto;html=1;entryX=0.5;entryY=0;entryDx=0;entryDy=0;" edge="1" parent="1" source="Gg3FP1nmdxX-HRQesoE5-3" target="4676IxzUqboOQJkkWCql-7">
          <mxGeometry relative="1" as="geometry">
            <Array as="points">
              <mxPoint x="470" y="460" />
              <mxPoint x="300" y="460" />
            </Array>
          </mxGeometry>
        </mxCell>
        <mxCell id="Gg3FP1nmdxX-HRQesoE5-3" value="Proyecto" style="ellipse;whiteSpace=wrap;html=1;aspect=fixed;" vertex="1" parent="1">
          <mxGeometry x="430" y="300" width="80" height="80" as="geometry" />
        </mxCell>
        <mxCell id="Gg3FP1nmdxX-HRQesoE5-11" style="edgeStyle=orthogonalEdgeStyle;rounded=0;orthogonalLoop=1;jettySize=auto;html=1;entryX=0.5;entryY=0;entryDx=0;entryDy=0;" edge="1" parent="1" source="Gg3FP1nmdxX-HRQesoE5-5" target="Gg3FP1nmdxX-HRQesoE5-3">
          <mxGeometry relative="1" as="geometry" />
        </mxCell>
        <mxCell id="C18QY-BRbdgbQT3fnW8t-2" style="edgeStyle=orthogonalEdgeStyle;rounded=0;orthogonalLoop=1;jettySize=auto;html=1;entryX=0.5;entryY=0;entryDx=0;entryDy=0;" edge="1" parent="1" source="Gg3FP1nmdxX-HRQesoE5-5" target="4676IxzUqboOQJkkWCql-6">
          <mxGeometry relative="1" as="geometry" />
        </mxCell>
        <mxCell id="Gg3FP1nmdxX-HRQesoE5-5" value="Servidor" style="text;html=1;align=center;verticalAlign=middle;resizable=0;points=[];autosize=1;strokeColor=none;fillColor=none;" vertex="1" parent="1">
          <mxGeometry x="355" y="238" width="70" height="30" as="geometry" />
        </mxCell>
        <mxCell id="Gg3FP1nmdxX-HRQesoE5-7" value="" style="endArrow=none;html=1;rounded=0;" edge="1" parent="1">
          <mxGeometry width="50" height="50" relative="1" as="geometry">
            <mxPoint x="365" y="240" as="sourcePoint" />
            <mxPoint x="415" y="240" as="targetPoint" />
          </mxGeometry>
        </mxCell>
        <mxCell id="Gg3FP1nmdxX-HRQesoE5-8" value="" style="endArrow=none;html=1;rounded=0;" edge="1" parent="1">
          <mxGeometry width="50" height="50" relative="1" as="geometry">
            <mxPoint x="365" y="268" as="sourcePoint" />
            <mxPoint x="415" y="268" as="targetPoint" />
          </mxGeometry>
        </mxCell>
        <mxCell id="Gg3FP1nmdxX-HRQesoE5-18" style="edgeStyle=orthogonalEdgeStyle;rounded=0;orthogonalLoop=1;jettySize=auto;html=1;entryX=0.5;entryY=1;entryDx=0;entryDy=0;" edge="1" parent="1" source="Gg3FP1nmdxX-HRQesoE5-14" target="4676IxzUqboOQJkkWCql-8">
          <mxGeometry relative="1" as="geometry" />
        </mxCell>
        <mxCell id="C18QY-BRbdgbQT3fnW8t-4" style="edgeStyle=orthogonalEdgeStyle;rounded=0;orthogonalLoop=1;jettySize=auto;html=1;entryX=0.5;entryY=1;entryDx=0;entryDy=0;" edge="1" parent="1" source="Gg3FP1nmdxX-HRQesoE5-14" target="4676IxzUqboOQJkkWCql-7">
          <mxGeometry relative="1" as="geometry" />
        </mxCell>
        <mxCell id="Gg3FP1nmdxX-HRQesoE5-14" value="Fechas" style="text;html=1;align=center;verticalAlign=middle;resizable=0;points=[];autosize=1;strokeColor=none;fillColor=none;" vertex="1" parent="1">
          <mxGeometry x="360" y="670" width="60" height="30" as="geometry" />
        </mxCell>
        <mxCell id="Gg3FP1nmdxX-HRQesoE5-15" value="" style="endArrow=none;html=1;rounded=0;" edge="1" parent="1">
          <mxGeometry width="50" height="50" relative="1" as="geometry">
            <mxPoint x="365" y="672" as="sourcePoint" />
            <mxPoint x="415" y="672" as="targetPoint" />
          </mxGeometry>
        </mxCell>
        <mxCell id="Gg3FP1nmdxX-HRQesoE5-16" value="" style="endArrow=none;html=1;rounded=0;" edge="1" parent="1">
          <mxGeometry width="50" height="50" relative="1" as="geometry">
            <mxPoint x="365" y="700" as="sourcePoint" />
            <mxPoint x="415" y="700" as="targetPoint" />
          </mxGeometry>
        </mxCell>
      </root>
    </mxGraphModel>
  </diagram>
</mxfile>
